<?xml version="1.0" encoding="UTF-8" standalone="no"?>
<!-- Created with Inkscape (http://www.inkscape.org/) -->

<svg
   version="1.1"
   id="svg1"
   width="128"
   height="128"
   viewBox="0 0 128 128"
   sodipodi:docname="oneko-96.png"
   xml:space="preserve"
   xmlns:inkscape="http://www.inkscape.org/namespaces/inkscape"
   xmlns:sodipodi="http://sodipodi.sourceforge.net/DTD/sodipodi-0.dtd"
   xmlns="http://www.w3.org/2000/svg"
   xmlns:svg="http://www.w3.org/2000/svg"><defs
     id="defs1" /><sodipodi:namedview
     id="namedview1"
     pagecolor="#505050"
     bordercolor="#eeeeee"
     borderopacity="1"
     inkscape:showpageshadow="0"
     inkscape:pageopacity="0"
     inkscape:pagecheckerboard="0"
     inkscape:deskcolor="#d1d1d1" /><g
     inkscape:groupmode="layer"
     inkscape:label="Image"
     id="g1"><path
       style="display:inline;fill:#000000"
       d="M 42,116 H 20 v -4 -4 h 2 2 v -6 -6 h 2 2 v -2 -2 h 2 2 v -2 -2 h 4 4 v 2 2 h 2 2 v -4 -4 h 2 2 v -2 -2 h 2 2 v -2 -2 h 2 2 V 74 72 H 52 48 V 70 68 H 46 44 V 66 64 H 42 40 V 62 60 H 38 36 V 46 32 h 2 2 v -4 -4 h 2 2 v -4 -4 h 2 2 v -2 -2 h 2 2 v 2 2 h 2 2 v 2 2 h 2 2 v 4 4 h 2 2 v 2 2 h 2 2 v -2 -2 h 2 2 v -4 -4 h 2 2 v -2 -2 h 2 2 v -2 -2 h 2 2 v 2 2 h 2 2 v 4 4 h 2 2 v 4 4 h 2 2 v 14 14 h -2 -2 v 2 2 h -2 -2 v 2 2 h -2 -2 v 2 2 h -4 -4 v 2 2 h 2 2 v 2 2 h 2 2 v 2 2 h 2 2 v -2 -2 h 2 2 v -2 -2 h 2 2 v -2 -2 h 2 2 v -2 -2 h 2 2 v 2 2 h 2 2 v 4 4 h -2 -2 v 2 2 h -2 -2 v 4 4 h 2 2 v 2 2 h 2 2 v 6 6 h 2 2 v 4 4 H 90 68 v -2 -2 h -2 -2 v 2 2 z m -4,-4 h 10 v -6 -6 h -2 -2 v -2 -2 h -2 -2 v -2 -2 h -4 -4 v 2 2 h -2 -2 v 4 4 h 4 4 v 2 2 h -4 -4 v 2 2 z m 18,0 h 4 v -2 -2 h 2 2 v -8 -8 h 2 2 v 8 8 h 2 2 v 2 2 h 4 4 v -8 -8 h 2 2 v -6 -6 h -2 -2 v -2 -2 h -2 -2 v -2 -2 h -2 -2 v -4 -4 h 6 6 v -2 -2 h 2 2 v -2 -2 h 2 2 V 46 32 h -2 -2 v -4 -4 h -2 -2 v -4 -4 h -2 -2 v 2 2 h -2 -2 v 4 4 h -2 -2 v 4 4 h -6 -6 v -4 -4 h -2 -2 v -4 -4 h -2 -2 v -2 -2 h -2 -2 v 4 4 h -2 -2 v 4 4 h -2 -2 v 14 14 h 2 2 v 2 2 h 2 2 v 2 2 h 6 6 v 4 4 h -2 -2 v 2 2 h -2 -2 v 2 2 h -2 -2 v 6 6 h 2 2 v 8 8 z M 50,60 h -6 v -2 -2 h 6 6 v 2 2 z m 16,0 h -2 v -2 -2 h 2 2 v 2 2 z m 16,0 h -6 v -2 -2 h 6 6 v 2 2 z M 54,52 h -2 v -6 -6 h 2 2 v 6 6 z m 24,0 h -2 v -6 -6 h 2 2 v 6 6 z m 16,60 h 10 v -2 -2 h -4 -4 v -2 -2 h 4 4 v -4 -4 h -2 -2 v -2 -2 h -4 -4 v 2 2 h -2 -2 v 2 2 h -2 -2 v 6 6 z M 90,92 h 2 v -2 -2 h 2 2 v -2 -2 h 2 2 v -2 -2 h 2 2 v -4 -4 h -2 -2 v 2 2 h -2 -2 v 2 2 h -2 -2 v 2 2 h -2 -2 v 4 4 z M 8,48 H 0 v -2 -2 h 8 8 v 2 2 z m 108,0 h -8 v -2 -2 h 8 8 v 2 2 z M 24,36 H 20 V 34 32 H 16 12 V 30 28 H 8 4 v -2 -2 h 4 4 v 2 2 h 4 4 v 2 2 h 4 4 v 2 2 z m 80,0 h -4 v -2 -2 h 4 4 v -2 -2 h 4 4 v -2 -2 h 4 4 v 2 2 h -4 -4 v 2 2 h -4 -4 v 2 2 z M 34,24 H 32 V 22 20 H 30 28 V 18 16 H 26 24 V 14 12 H 22 20 V 10 8 h 2 2 v 2 2 h 2 2 v 2 2 h 2 2 v 2 2 h 2 2 v 2 2 z m 64,-4 h -2 v -2 -2 h 2 2 v -2 -2 h 2 2 V 10 8 h 2 2 v 2 2 h -2 -2 v 2 2 h -2 -2 v 2 2 z"
       id="path9217" /><path
       style="fill:#ffffff;fill-opacity:1"
       d="m 38.002187,112.00271 h -10 v -2 -2 h 4 4 v -2 -2 h -4 -4 v -4 -3.999926 h 2 2 v -2 -2 h 4 4 v 2 2 h 2 2 v 2 1.999926 h 2 2 v 6 6 z m 18,0 h -4 v -8 -7.999926 h -2 -2 v -6 -6 h 2 2 v -2 -2 h 2 2 v -2 -2 h 2 2 v -4 -4 h -6 -6 v -2 -2 h -2 -2 v -2 -2 h -2 -2 v -14 -14 h 2 2 v -4 -4 h 2 2 v -4 -4 h 2 2 v 2 2 h 2 2 v 4 4 h 2 2 v 4 4 h 6 6 v -4 -4 h 2 2 v -4 -4 h 2 2 v -2 -2 h 2 2 v 4 4 h 2 2 v 4 4 h 2 2 v 14 14 h -2 -2 v 2 2 h -2 -2 v 2 2 h -6 -6 v 4 4 h 2 2 v 2 2 h 2 2 v 2 2 h 2 2 v 6 6 h -2 -2 v 7.999926 8 h -4 -4 v -2 -2 h -2 -2 v -8 -7.999926 h -2 -2 v 7.999926 8 h -2 -2 v 2 2 z m -6,-51.999926 h 6 v -2 -2 h -6 -6 v 2 2 z m 16,0 h 2 v -2 -2 h -2 -2 v 2 2 z m 16,0 h 6 v -2 -2 h -6 -6 v 2 2 z m -28,-8 h 2 v -6 -6 h -2 -2 v 6 6 z m 24,0 h 2 v -6 -6 h -2 -2 v 6 6 z m 16,59.999926 h -10 v -6 -6 h 2 2 v -1.999926 -2 h 2 2 v -2 -2 h 4 3.999933 v 2 2 h 2 2 v 3.999926 4 h -4 -3.999933 v 2 2 h 3.999933 4 v 2 2 z m -4,-19.999926 h -2 v -4 -4 h 2 2 v -2 -2 h 2 2 v -2 -2 h 2 1.999933 v -2 -2 h 2 2 v 4 4 h -2 -2 v 2 2 h -1.999933 -2 v 2 2 h -2 -2 v 2 2 z"
       id="path9233" /></g></svg>
